<?xml version="1.0" encoding="utf-8"?>
<!-- Generator: Adobe Illustrator 16.0.0, SVG Export Plug-In . SVG Version: 6.00 Build 0)  -->
<!DOCTYPE svg PUBLIC "-//W3C//DTD SVG 1.1//EN" "http://www.w3.org/Graphics/SVG/1.1/DTD/svg11.dtd">
<svg version="1.1" id="Layer_1" xmlns="http://www.w3.org/2000/svg" xmlns:xlink="http://www.w3.org/1999/xlink" x="0px" y="0px"
	 width="685.479px" height="800px" viewBox="0 0 685.479 800" enable-background="new 0 0 685.479 800" xml:space="preserve">
<g>
	<defs>
		<rect id="SVGID_1_" width="685.479" height="800"/>
	</defs>
	<clipPath id="SVGID_2_">
		<use xlink:href="#SVGID_1_"  overflow="visible"/>
	</clipPath>
	<path clip-path="url(#SVGID_2_)" d="M682.576,308.976c-17.64,3.457-35.281,6.915-52.916,10.41
		c-9.272,1.837-18.432,4.568-28.065,2.021c-6.527-1.725-13.251-1.798-19.796-0.294c-10.553,2.425-20.422,1.343-29.709-4.377
		c-1.698-1.046-3.522-1.888-5.3-2.804c-2.603-1.342-5.424-2.508-3.947-6.716c-2.944,1.313-4.977,2.57-7.425,2.407
		c-9.452-0.626-19.106-0.263-28.307-2.137c-12.699-2.588-14.337-3.82-15.988-16.118c-0.752-5.604-1.073-11.266-1.795-16.875
		c-1.067-8.326,1.042-15.621,5.595-22.708c6.927-10.787,13.25-21.966,19.702-33.052c1.674-2.876,3.941-4.191,7.171-4.654
		c15.493-2.221,30.936-4.39,46.696-4.33c8.072,0.032,15.459,1.24,22.702,4.533c8.037,3.653,16.206,7.013,24.237,10.675
		c5.717,2.605,11.721,2.451,18.674,3.002c-1.191-0.991-1.51-1.48-1.91-1.558c-13.301-2.596-24.828-9.465-36.805-15.245
		c-3.447-1.663-6.99-3.144-10.341-4.978c-2.882-1.578-2.896-3.602-0.54-5.992c3.121-3.167,7.042-4.052,11.166-4.957
		c14.091-3.093,28.806-3.533,42.138-9.882c7.432-3.539,14.914-6.974,22.964-10.733c-2.794-1.328-4.297,0.086-5.877,0.678
		c-12.917,4.842-25.459,10.772-39.321,12.773c-8.4,1.213-16.736,2.88-25.13,4.164c-3.096,0.475-5.647,1.498-7.757,3.936
		c-5.071,5.867-11.21,8.225-19.312,7.827c-16.451-0.81-32.957-0.481-49.44-0.673c-1.124-0.013-2.476-0.144-3.326-0.763
		c-5.518-4.018-11.62-5.242-18.373-5.016c-3.099,0.104-7.857-0.251-8.308-3.787c-0.459-3.592,2.428-7.107,5.827-9.277
		c1.097-0.701,2.477-0.952,3.727-1.412c8.287-3.049,16.562-6.13,24.866-9.128c2.365-0.854,3.932-2.191,4.607-4.747
		c1.572-5.952,3.576-11.798,4.964-17.79c1.403-6.064,4-11.856,4.704-18.479c-2.515,1.108-2.461,3.18-2.979,4.806
		c-2.977,9.356-5.892,18.735-8.709,28.142c-0.833,2.778-2.295,4.577-5.129,5.553c-7.555,2.603-14.986,5.57-22.568,8.083
		c-3.741,1.241-6.943,2.97-9.674,5.849c-6.578,6.939-14.25,12.631-22.407,17.462c-6.616,3.919-14.604,2.885-20.446-0.608
		c-1.325-0.791-2.627-1.547-3.931-2.258c-5.196-4.43-10.656-8.419-16.358-11.999c0.486-0.968,1.208-1.995,2.191-3.077
		c2.392-2.631,4.896-5.159,7.348-7.734c-4.498,1.38-8.301,3.664-12.24,5.675c-1.05,0.536-2.108,1.136-3.195,1.638
		c-8.738-4.923-17.998-8.968-27.726-12.205c-8.667-2.878-17.453-5.124-26.342-6.835c-0.644-0.457-1.287-0.911-1.92-1.392
		c-0.896-0.682-2.031-1.192-3.133-1.439c-12.903-2.889-15.292-18.876-11.064-27.306c4.041-8.057,7.105-16.467,10.935-24.569
		c0.646-1.363,2.001-2.749,0.957-4.63c-2.255,0.543-2.361,2.672-3.226,4.144c-4.202,7.156-7.393,14.884-12.606,21.48
		c-1.9,2.406-4.045,4.028-6.738,2.614c-4.516-2.369-9.151-4.786-10.676-10.479c-2.247-8.392-5.745-16.336-9.787-23.992
		c-5.109-9.678-9.438-19.427-8.466-30.812c0.313-3.669-1.192-7.287-3.174-10.394c-2.721-4.266-3.464-8.951-3.68-13.799
		c-0.208-4.684,1.227-6.033,5.962-5.518c2.64,0.287,5.243,0.94,7.855,1.462c8.472,1.694,16.865,3.985,25.67,2.468
		c4.87-0.838,9.098,0.832,13.103,3.629c4.776,3.337,10.068,5.986,14.611,9.595c5.36,4.259,11.14,5.589,17.697,4.694
		c5.458-0.744,10.946-0.941,16.451-0.944c1.255-0.001,3.121,0.666,3.591-1.819c-4.02-0.889-7.948-0.118-11.885-0.1
		c-6.845,0.032-14.031,2.54-20.436-1.734c-6.235-4.159-12.226-8.685-18.43-12.894c-2.162-1.466-3.102-3.196-3.137-5.785
		c-0.082-5.943,0.013-11.841,2.155-17.569c-3.091,3.227-4.23,7.071-4.558,11.294c-0.453,5.873-2.602,7.515-8.534,8.175
		c-12.427,1.384-24.391-1.079-35.73-5.398c-6.544-2.493-13.202-5.487-17.325-12.774c-3.929-6.946-5.475-14.18-7.106-21.62h-3
		c0.495,10.144,3.197,19.389,8.87,28.102c4.103,6.303,7.725,13.369,6.831,21.521c-1.379,12.569-1.528,25.275-4.075,37.71
		c-1.426,6.965-2.818,13.641-8.363,19.237c-5.331,5.381-11.712,10.15-15.126,17.165c-3.566,7.326-8.185,13.621-14.41,18.908
		c-2.35,1.996-5.417,3.641-6.163,7.178c7.727-5.878,15.738-11.361,20.575-20.264c2.373-4.37,5.599-8.269,8.297-12.473
		c1.499-2.336,3.446-4.024,5.905-5.206c1.008-0.484,1.885-1.636,3.157-0.91c1.319,0.753,0.763,2.027,0.623,3.154
		c-0.659,5.318-0.305,10.645-0.2,15.975c0.182,9.33,2.87,18.426-3.546,27.655c-2.102,3.024-4.084,5.7-6.492,7.807
		c-17.53,3.384-34.448,8.765-50.396,17.268c-9.934,5.295-18.915,11.544-27.012,18.68c-1.264,0.553-2.533,1.096-3.803,1.634
		c-3.5,1.482-7.438,1.964-11.294,1.228c-1.329-0.253-3.397-0.078-3.503-2.074c-0.083-1.576,1.639-2.121,2.844-2.381
		c4.031-0.874,6.462-3.593,7.739-7.114c2.755-7.595,8.665-11.343,15.648-14.286c4.11-1.733,8.348-3.486,11.607-6.826
		c-7.659,2.763-15.034,6.087-22.488,9.226c-2.856,1.203-5.04,2.853-6.864,5.457c-1.968,2.807-3.094,7.162-6.549,7.884
		c-9.367,1.959-18.669,4.691-28.569,2.682c-14.996-3.043-30.176-5.188-45.148-8.33c-9.421-1.978-19.684-1.712-27.308-9.507
		c-2.932-2.998-4.197-5.512-2.739-9.623c3.898-10.998,10.008-20.973,17.338-29.597c5.515-6.488,3.859-12.237,2.761-18.909
		c1.979,9.295-3.669,15.513-8.343,22.174c-4.973,7.088-10.059,14.125-14.528,21.526c-2.879,4.766-6.146,7.4-11.973,7.121
		c-7.637-0.365-15.304-0.09-22.958-0.09c0.002,0.408,0.004,0.816,0.006,1.224c8.75,0.918,17.628-0.549,26.341,1.198
		c5.725,1.149,8.488,6.053,12.237,9.635c1.325,1.267-0.499,2.726-1.482,3.768c-3.421,3.632-6.816,7.299-10.422,10.742
		c-2.15,2.054-3.473,4.406-4.155,7.229c-1.681,6.959-3.416,13.905-5.051,20.875c-0.252,1.077-1.036,2.335,0.341,3.984
		c2.721-5.927,5.118-11.484,5.913-17.356c1.904-14.081,13.831-18.062,23.58-24.294c0.601-0.384,1.74-0.417,2.413-0.123
		c5.182,2.272,11.048,2.959,15.76,6.208c10.415,7.182,20.991,14.194,30.889,22.046c12.781,10.139,20.819,27.951,12.481,45.961
		c-3.145,6.791-5.974,13.727-9.059,20.546c-5.237,11.574-8.434,23.547-7.464,36.383c0.091,1.2,0.078,2.503-0.844,3.283
		c-3.451,2.918-2.196,5.786-0.133,8.739c3.889,5.568,3.096,10.664-0.903,16.005c-3.839,5.128-9.464,7.378-14.881,9.172
		c-13.623,4.514-27.757,6.949-42.191,6.795c-13.997-0.149-10.529,2.116-14.561-11.344c-1.184-3.952-1.167-8.306-3.828-11.83
		c0.644,6.784,1.791,13.447,2.989,20.101c0.565,3.141,1.21,6.293-0.589,9.241c-9.542,15.639-18.858,31.42-32.421,44.143
		c-5.098,4.782-10.193,8.607-17.674,6.005c-0.526-0.183-1.384-0.133-1.375,0.881c9.105,6.116,13.754,5.58,20.371-2.24
		c11.84-13.994,23.338-28.263,34.05-43.138c2.517-3.495,5.605-5.231,9.713-6.266c12.556-3.164,25.454-2.692,38.141-4.208
		c11.741-1.403,17.677,4.081,21.376,13.973c0.117,0.312,0.287,0.602,0.415,0.91c3.033,7.301,3.13,7.432-3.054,12.05
		c-14.719,10.993-28.241,23.272-41.334,36.167c-8.243,8.116-17.762,14.341-30.774,8.73c-4.656-2.008-10.051-3.544-16.803-3.609
		c3.885,2.616,6.92,3.859,9.985,5.092c11.646,4.683,12.934,6.694,12.53,19.391c-0.068,2.162-0.221,4.331-0.509,6.474
		c-1.867,13.89-5.546,27.425-8.099,41.181c-0.529,2.852-2.113,4.636-4.546,6.158c-12.998,8.125-25.923,16.364-38.824,24.643
		c-1.571,1.009-3.956,1.646-3.727,5.067c12.489-6.873,24.667-13.052,36.284-20.148c8.151-4.979,16.223-7.829,25.888-6.207
		c3.666,0.615,6.325,1.536,8.906,4.414c13.518,15.071,23.97,32.873,40.632,45.164c11.569,8.535,20.391,20.239,31.669,28.998
		c16.544,12.85,29.785,29.004,45.173,42.973c3.739,3.394,5.853,8.021,6.243,13.283c1.923,25.897,3.672,51.813,6.013,77.673
		c0.606,6.684-0.068,13.599,3.013,20.099c4.202,8.868,7.683,18.076,11.647,27.062c1.406,3.189,1.979,6.093,0.732,9.569
		c-1.846,5.145-3.743,10.328-4.373,15.83h6c1.219-3.447,2.744-6.821,3.585-10.357c1.271-5.341,4.729-8.344,9.263-11.004
		c9.046-5.308,17.821-11.082,26.678-16.711c1.132-0.72,2.921-1.147,2.263-3.326c-1.266-0.207-2.243,0.379-3.278,0.898
		c-9.974,5.011-20.009,9.902-29.919,15.035c-3.327,1.724-5.16,1.18-6.453-2.37c-5.883-16.158-14.944-31.453-13.247-49.647
		c0.121-1.293-0.267-2.646-0.514-3.956c-0.747-3.953,0.479-6.421,4.78-7.039c2.796-0.401,5.537-1.181,8.302-1.794
		c15.453-3.431,31.008-6.296,46.7-8.4c9.51-1.275,11.593,0.856,9.989,10.205c-0.761,4.433-1.584,8.86-2.153,13.319
		c-0.245,1.917-0.995,4.136,1.549,6.547c1.436-6.037,2.478-11.396,3.996-16.618c3.987-13.71,2.606-13.69,16.66-9.79
		c7.647,2.122,15.433,3.477,23.171,2.659c9.957-1.052,19.173,1.198,28.461,3.903c4.346,1.266,5.871,3.531,3.818,8.146
		c-1.869,4.205-2.88,8.794-4.268,13.213c0.45,0.151,0.9,0.302,1.351,0.453c2.344-1.966,3.309-4.882,3.891-7.68
		c2.351-11.305,9.657-19.545,16.887-27.8c5.213-5.953,15.29-6.063,20.868-0.652c1.688,1.638,3.055,3.888,5.614,4.202
		c0.788-0.855,0.591-1.567,0.213-2.074c-6.574-8.799-7.953-18.678-6.637-29.328c0.488-3.942,1.012-7.414,3.244-10.537
		c3.388-2.943,6.653-6,9.827-9.145c5.209-4.848,10.119-10.047,14.664-15.637c0.104-0.128,0.207-0.259,0.311-0.388
		c1.899-2.167,3.778-4.353,5.646-6.55c2.195-1.994,4.858-3.566,8.565-4.133c22.212-3.396,44.532-5.949,66.758-9.22
		c9.905-1.457,20.012-4.367,29.727,1.399c3.275,1.943,6.935,3.24,10.431,4.805c6.016,2.69,13.646,2.085,19.798-1.581
		c-2.753-1.079-5.283,0.025-7.855,0.563c-2.604,0.544-5.052,1.029-7.685-0.532c-5.296-3.142-10.764-6.008-16.247-8.813
		c-6.589-3.37-10.196-8.688-11.56-15.907c-2.068-10.955-4.67-21.711-8.859-32.181c-3.928-9.809-8.541-19.701-8.525-30.608
		c0.012-7.416-2.024-13.18-7.462-18.762c-0.665-0.683-1.233-1.364-1.742-2.047c1.43-6.856,2.625-13.757,3.655-20.688
		c8.157-11.123,15.586-22.725,20.939-35.476c3.84-9.146,10.401-12.739,19.944-12.558c9.053,0.17,17.044,4.346,25.646,6.162
		c2.985,0.631,5.829,2.276,9.193,1.547c-0.584-2.488-2.693-2.654-4.229-3.363c-8.767-4.052-17.381-8.346-25.607-13.449
		c-9.501-5.894-12.158-15.492-6.417-25.093c8.69-14.531,19.051-28.095,24.169-44.634c1.718-5.548,4.388-10.761,4.447-16.752
		c0.029-3.097,0.842-6.231,3.308-8.105c10.403-7.903,21.354-14.157,35.343-11.64c5.513,0.993,11.155,2.851,16.799,1.436
		c22.453-5.63,44.854-11.463,67.262-17.279c0.949-0.247,2.417-0.132,2.579-1.724C684.517,308.31,683.52,308.791,682.576,308.976
		 M463.425,209.718c1.586-0.896,3.114-1.968,4.473-3.182c6.139-5.492,12.667-8.515,20.751-3.983c0.949,0.532,2.27,0.458,3.426,0.557
		c10.438,0.897,14.575,5.374,14.603,16.275c0.105,1.962-0.245,4.139-2.005,6.029c-5.104,5.484-10.021,11.14-15.171,16.578
		c-3.681,3.886-7.413,3.444-9.224-1.592c-1.929-5.367-5.84-8.231-10.274-11.011c-4.421-2.77-8.393-5.997-9.61-11.563
		C459.635,214.364,460.078,211.608,463.425,209.718 M290.451,90.519c1.033-7.23,2.76-14.365,4.268-21.522
		c0.291-1.379,0.313-3.512,2.148-3.517c2.179-0.006,1.753,2.426,2.411,3.824c0.136,0.288,0.206,0.669,0.148,0.978
		c-2.311,12.341,4.124,22.18,9.496,32.199c3.456,6.446,5.9,13.092,5.898,20.356c-0.003,8.378,6.06,12.992,10.786,18.365
		c2.703,3.074,4.593,6.069,3.952,9.863c0.023,2.897-0.136,5.384-1.277,7.69c-0.502,1.015-1.032,1.973-1.744,2.579h-3.978
		c-0.831-0.296-1.623-0.248-2.375,0h-18.205c-1.719,0.196-3.438,0.381-5.158,0.565c-3.492-2.406-5.145-6.658-5.607-10.799
		c-0.98-8.775-1.99-17.524-3.993-26.113C284.45,113.104,288.819,101.94,290.451,90.519 M123.37,201.896
		c-1.17-0.451-2.722-1.057-2.353-2.74c0.278-1.265,1.628-0.776,2.674-0.973c2.656,0.639,5.418,1.239,8.145,1.971
		c13.007,3.494,25.971,7.135,38.615,11.813c1.35,0.5,3.294,0.675,3.578,2.333c0.369,2.15-1.929,2.411-3.211,3.26
		c-1.937,1.281-4.111,2.206-6.035,3.504c-2.528,1.705-4.889,3.06-7.145-0.298c-0.085-0.126-0.264-0.235-0.416-0.265
		C143.958,217.912,135.495,206.574,123.37,201.896 M87.745,430.92c8.865-8.448,16.274-18.495,27.423-24.454
		c5.351-2.86,11.146-2.532,15.525,1.667c0.596,0.573,1.389,1.042,1.252,1.996c-0.183,1.271-1.273,1.369-2.256,1.511
		c-2.303,0.332-4.615,0.601-6.912,0.965c-1.257,0.199-2.956,0.031-3.136,1.788c-0.156,1.515,1.207,2.296,2.363,2.935
		c2.019,1.115,4.289,1.776,5.657,3.899c2.745,4.259,1.464,7.291-3.503,8.291c-2.209,0.444-4.579-0.542-7.182,0.766
		c2.117,2.663,5.027,2.925,7.524,3.926c1.845,0.74,4.048,1.236,3.774,3.891c-0.265,2.57-1.978,3.655-4.464,3.775
		c-1.302,0.063-3.057-0.097-3.398,1.44c-0.419,1.888,1.538,2.298,2.785,2.977c9.006,4.904,9.061,4.949,1.893,11.188
		c-9.805,8.536-13.94,7.436-25.114-0.192c-4.641-3.168-6.864-9.515-13.434-10.356c-0.979-0.125-1.287-1.416-1.374-2.458
		c-0.082-0.992,0.222-2.382-0.318-2.914C79.433,436.218,84.774,433.751,87.745,430.92 M68.591,506.789
		c-2.826,0.804-5.919,0.834-8.897,0.917c-6.311,0.177-6.733-0.319-6.836-6.721c-0.014-0.831-0.002-1.663-0.002-2.495
		c0.48-11.423,4.102-22.198,6.905-33.133c1.237-4.828,2.71-9.614,4.39-14.308c2.015-5.629,6.819-6.768,11.162-2.915
		c9.555,8.479,20.316,15.013,32.201,19.657c7.111,2.778,13.125,7.156,18.551,12.383c4.082,3.933,3.287,6.282-1.506,8.953
		C107.089,498.862,87.405,501.427,68.591,506.789 M170.567,605.098c-1.489,1.173-3.433,0.146-4.63-0.759
		c-5.171-3.903-10.221-7.977-15.186-12.142c-15.041-12.621-30.03-25.304-45.013-37.994c-1.133-0.96-2.165-2.086-3.06-3.273
		c-8.117-10.771-16.218-21.555-24.256-32.385c-1.423-1.916-3.784-4.278,0.692-5.527c12.036-3.359,24.209-6.001,32.346-6.582
		c13.208-0.539,20.081,2.861,25.278,10.126c6.764,9.455,10.45,20.411,15.561,30.672c8.502,17.068,11.046,36.139,18.128,53.682
		C170.935,602.17,171.979,603.985,170.567,605.098 M210.493,693.769c-1.105,1.341-1.568,3.874-3.852,3.205
		c-2.148-0.629-1.548-3.007-1.795-4.761c-1.26-8.955-1.427-18.075-0.543-26.924c1.471-14.723-2.553-27.522-10.323-39.57
		c-2.053-3.182-2.225-6.536-1.341-10.062c0.073-0.289,0.392-0.518,0.77-0.992c3.021,3.558,6.137,6.967,8.962,10.603
		c7.122,9.167,14.593,17.992,23.528,25.48c2.995,2.51,3.102,5.039-0.248,7.26c-2.147,1.423-2.812,3.465-3.456,5.792
		C219.32,674.181,217.671,685.06,210.493,693.769 M319,702.124c-2.606,0.499-5.174,1.201-7.823,1.827
		c-4.684-1.268-9.613-1.92-13.938-3.896c-14.667-6.703-29.444-4.534-44.445-1.761c-10.447,1.933-20.954,3.745-31.676,3.629
		c-4.006-0.042-5.226-1.434-3.497-5.134c3.742-8.009,7.767-15.894,13.294-22.815c3.395-4.252,8.408-6.529,13.491-8.1
		c0.867-0.268,1.682-0.263,2.459-0.088c4.419,3.411,9.006,6.563,13.801,9.394c6.034,3.963,12.383,7.372,19.181,10.114
		c11.816,4.766,23.758,8.474,36.677,8.016c2.304-0.082,4.761-0.345,5.558,2.837C322.833,699.137,322.666,701.424,319,702.124
		 M367.451,691.73c-1.582,5.805-5.673,10.093-9.201,14.643c-2.143,2.762-5.721,0.56-8.544,1.288
		c-5.479,0.715-10.542-1.294-15.688-2.479c-3.659-0.843-5.984-3.496-6.743-7.271c-0.519-2.58,0.206-4.718,2.846-5.646
		c9.388-3.297,18.975-5.983,28.14-9.977C362.069,680.628,368.563,687.655,367.451,691.73 M384.557,676.665
		c0,2.014-0.126,3.688,0.023,5.336c0.373,4.108-1.785,5.845-5.462,7.022c-3.629,1.161-5.736,0.101-7.22-3.094
		c-0.07-0.148-0.186-0.275-0.286-0.408c-3.022-4.084-4.23-6.529-3.291-8.711c5.028-2.785,9.855-5.939,14.519-9.398
		c0.198,0.061,0.396,0.141,0.596,0.247C386.21,669.159,383.97,673.81,384.557,676.665 M511.46,591.01
		c0.613,1.897,1.366,3.77,1.765,5.713c1.45,7.108,0.176,9.691-6.573,12.168c-10.2,3.743-20.718,6.038-32.58,5.941
		c-8.997,0.281-18.245-1.92-26.5-7.567c-2.396-1.64-3.511-3.032-3.486-4.545c2.107-2.513,4.214-5.026,6.338-7.529
		c1.96-2.315,3.83-4.679,5.625-7.082c1.147-1.303,2.298-2.605,3.458-3.896c2.92-3.249,6.267-4.079,10.728-3.453
		c10.685,1.5,21.444,2.628,32.21,3.284C507.49,584.351,510.045,586.637,511.46,591.01 M506.695,576.925
		c-0.16,2.411-1.147,3.961-3.648,3.646c-9.219-1.157-18.644-0.621-27.675-3.276c-4.145-1.22-5.813-4.018-3.641-7.385
		c4.027-6.244,8.81-11.878,15.83-11.616C498.72,558.145,507.335,567.311,506.695,576.925 M502.656,460.867
		c-1.212,1.986-2.409,0.839-3.44-0.505c-1.311-1.705-2.304-3.815-2.99-6.111c0.561-6.244,1.069-12.493,1.555-18.742
		c1.182-1.937,2.588-2.546,4.788-1.543c4.747,2.164,8.314,5.038,7.077,10.734C510.79,451.779,505.695,455.885,502.656,460.867
		 M555.88,337.102c-1.012,21.072-8.408,39.359-20.905,55.829c-5.324,7.015-11.641,13.296-13.861,22.22
		c-0.387,1.559-1.39,2.613-3.18,2.669c-2.161,0.066-3.325-1.273-4.263-2.932c-4.203-7.433-7.133-15.394-9.342-23.599
		c-1.867-6.944-2.222-14.105-2.354-22.869c-0.408-4.101,0.56-9.732,1.39-15.294c1.353-9.07,0.876-17.852-1.74-26.633
		c-1.795-6.027,0.01-9.363,6.383-9.972c9.081-0.867,18.231-1.673,27.388-1.119c1.567,0.095,3.191,0.924,4.59,1.75
		c2.575,1.519,4.838,3.638,7.522,4.882C554.097,325.086,556.255,329.283,555.88,337.102"/>
</g>
<g>
	<defs>
		<rect id="SVGID_3_" width="685.479" height="800"/>
	</defs>
	<clipPath id="SVGID_4_">
		<use xlink:href="#SVGID_3_"  overflow="visible"/>
	</clipPath>
	<path clip-path="url(#SVGID_4_)" fill="#FAF3F2" d="M457.843,345.802c3.308,8.956,5.187,21.848,5.166,39.889
		c-0.44,22.202-6.121,47.663-20.094,70.876c-4.714,7.827-10.566,14.719-17.053,21.181c-4.22,4.204-8.914,5.526-14.455,5.064
		c-17.956-1.516-33.054-8.698-44.512-22.869c-4.468-5.526-7.324-11.892-8.839-18.869c-0.387-1.774-0.086-3.183,0.881-4.699
		c6.926-10.826,16.087-19.546,25.902-27.632c11.019-9.064,22.799-17.138,33.957-26.019c13.701-10.902,26.405-22.751,36.34-37.331
		c0.396-0.591,0.697-1.537,1.579-1.397C457.585,344.135,457.597,345.135,457.843,345.802"/>
	<path clip-path="url(#SVGID_4_)" fill="#FAF3F2" d="M271.984,435.741c1.45,2.161,1.643,4.15,1.021,6.569
		c-3.673,14.386-12.683,24.546-25.173,31.933c-8.698,5.15-18.148,7.849-28.222,8.603c-5.552,0.407-10.073-1.087-14.207-5.087
		c-14.551-14.052-23.969-31.072-29.994-50.179c-4.811-15.257-7.066-30.89-7.055-46.867c-0.011-11.924,1.213-23.664,5.144-35.008
		c0.236-0.688,0.257-1.763,0.966-1.924c0.988-0.215,1.192,0.989,1.632,1.612c12.221,17.698,28.286,31.439,45.319,44.201
		c10.137,7.602,20.446,15.009,30.015,23.353C259.194,419.721,266.26,427.107,271.984,435.741"/>
</g>
<g>
	<defs>
		<rect id="SVGID_5_" width="685.479" height="800"/>
	</defs>
	<clipPath id="SVGID_6_">
		<use xlink:href="#SVGID_5_"  overflow="visible"/>
	</clipPath>
	<path clip-path="url(#SVGID_6_)" fill="#EF4224" d="M473.469,501.349c-1.106,7.408-2.771,14.021-4.521,20.601
		c-2.997,11.235-6.809,22.17-11.877,32.653c-0.344,0.71-0.441,1.892-1.408,1.86c-0.987-0.021-0.966-1.227-1.245-1.957
		c-1.418-3.656-2.632-7.419-4.574-10.827c-1.548-2.699-1.473-5.333-0.741-8.172c2.298-9.054,7.26-16.601,13.144-23.632
		C465.413,508.101,468.937,504.702,473.469,501.349"/>
	<path clip-path="url(#SVGID_6_)" fill="#EF4224" d="M453.387,558.322c0.611,1.646,0.312,2.957-0.463,4.494
		c-4.683,9.312-11.426,16.945-18.836,24.128c-4.253,4.117-7.668,8.967-11.308,14.568c-1.203-6.677-2.202-12.591-3.887-18.354
		c-0.774-2.645-1.418-5.333-2.343-7.924c-0.729-2.107-0.729-4.097,0.173-6.075c5.025-11.053,12.726-19.676,23.379-25.589
		c0.439-0.236,0.901-0.441,1.363-0.624c4.017-1.591,4.962-1.226,6.766,2.604C450.197,549.71,451.775,554.021,453.387,558.322"/>
	<path clip-path="url(#SVGID_6_)" fill="#EF4224" d="M415.468,609.996c0.215-0.107,0.472-0.107,1.523-0.345
		c-11.877,14.225-23.442,27.697-37.563,39.524c0.16-5.581,0.021-10.387,3.865-14.516
		C392.668,624.618,403.257,616.264,415.468,609.996"/>
	<path clip-path="url(#SVGID_6_)" fill="#EF4224" d="M420.504,602.244c0.333,2.505-0.506,3.677-2.976,4.537
		c-8.482,2.945-15.517,8.364-22.498,13.815c-5.067,3.957-9.826,8.269-13.938,13.258c-0.258,0.312-0.505,0.666-1.17,0.612
		c-0.216-2.936-0.44-5.892-0.646-8.859c-0.461-6.924-1.438-13.784-2.855-20.568c-0.388-1.85-0.13-3.43,0.943-4.978
		c4.414-6.279,10.45-10.741,16.765-14.827c5.401-3.483,10.976-6.655,17.258-8.408c2.255-0.623,3.36-0.086,4.026,2.204
		C417.625,586.664,419.473,594.352,420.504,602.244"/>
	<path clip-path="url(#SVGID_6_)" fill="#EF4224" d="M412.793,571.16c0.634,1.678,0.72,2.721-1.374,3.365
		c-14.048,4.344-25.764,12.268-35.386,23.364c-0.149,0.172-0.376,0.291-0.795,0.612c-1.738-6.537-3.286-12.849-5.1-19.072
		c-1.923-6.56-4.028-13.075-6.207-19.548c-0.623-1.893-0.559-3.56,0.204-5.322c1.127-2.57,2.824-4.72,4.918-6.548
		c6.368-5.526,13.617-9.215,22.004-10.548c2.588-0.407,4.339,0.173,5.841,2.56C403.116,549.937,408.638,560.193,412.793,571.16"/>
	<path clip-path="url(#SVGID_6_)" fill="#EF4224" d="M374.466,641.746c2.738-0.204,3.05-0.011,2.921,2.827
		c-0.086,1.828-0.344,3.646-0.525,5.473c-0.108,0.979-0.624,1.699-1.375,2.279c-15.744,12.279-33.227,20.214-53.308,21.633
		c-1.633-0.344-3.802,0.882-4.661-0.903c-0.924-1.912-0.73-4.257,0.064-6.332c0.527-1.345,1.686-2.248,2.803-3.14
		c8.892-7.129,19.169-11.666,29.693-15.698C357.959,644.875,365.982,642.38,374.466,641.746"/>
	<path clip-path="url(#SVGID_6_)" fill="#EF4224" d="M377.537,635.488c0.011,3.44-0.107,3.569-3.521,3.925
		c-11.147,1.172-21.619,4.784-31.832,9.16c-8.601,3.677-16.934,7.859-24.205,13.892c-0.107,0.086-0.311,0.043-0.505,0.064
		c-0.633-0.796-0.354-1.742-0.354-2.624c-0.021-9.59,0.086-19.191-0.064-28.782c-0.054-3.183,1.149-5.376,3.543-7.269
		c9.375-7.386,20.115-12.053,31.251-15.934c5.907-2.064,11.953-3.667,18.203-4.322c3.436-0.355,3.812-0.14,4.434,3.322
		C376.206,616.371,377.516,625.854,377.537,635.488"/>
	<path clip-path="url(#SVGID_6_)" fill="#EF4224" d="M372.651,598.019c0.666,2.945,0.666,2.881-2.396,3.322
		c-18.835,2.688-36.007,9.482-51.311,20.88c-0.44,0.322-0.805,1.043-1.46,0.677c-0.58-0.333-0.365-1.053-0.365-1.612
		c-0.011-6.763-0.011-13.525-0.011-20.288c0-6.506,0.011-13.021-0.011-19.525c0-1.549,0.129-3.032,1.246-4.204
		c10.503-11.053,22.971-18.396,38.36-20.01c3.834-0.397,3.909-0.14,5.154,3.506C366.036,573.01,369.762,585.396,372.651,598.019"/>
	<path clip-path="url(#SVGID_6_)" fill="#EF4224" d="M358.948,552.463c0.505,1.397,0.999,2.591-1.343,2.569
		c-8.624-0.043-16.269,3.236-23.668,7.204c-6.024,3.236-11.576,7.171-16.344,12.214c-0.773-0.979-0.462-1.925-0.462-2.795
		c-0.033-10.688,0.086-21.375-0.086-32.052c-0.054-3.408,0.934-6.236,3.018-8.752c6.142-7.43,13.81-11.623,23.7-11.203
		c1.933,0.086,2.997,0.828,3.716,2.634C351.474,532.281,355.307,542.335,358.948,552.463"/>
	<path clip-path="url(#SVGID_6_)" fill="#EF4224" d="M311.396,663.454c3.351,2.204,3.727,5.462,3.426,9.042
		c-0.086,1.043-0.559,1.505-1.568,1.494h-2.996c-16.205-0.946-30.896-6.365-44.481-15.052c-2.384-1.517-4.543-3.42-7.023-4.764
		c-4.725-2.548-4.135-6.945-4.167-11.128c-0.011-1.548,1.289-1.44,2.416-1.344c4.167,0.333,8.269,1.032,12.296,2.14
		c13.005,3.559,25.355,8.688,36.824,15.826C307.959,660.809,309.592,662.261,311.396,663.454"/>
	<path clip-path="url(#SVGID_6_)" fill="#EF4224" d="M311.256,623.822c2.438,1.968,3.673,4.27,3.619,7.516
		c-0.14,9.602-0.043,19.203-0.064,28.805c0,0.795,0.279,1.666-0.537,2.634c-3.63-3.064-7.571-5.655-11.738-7.902
		c-14.423-7.763-29.403-13.881-45.877-15.515c-1.911-0.183-2.663-0.936-2.577-2.817c0.483-10.44,1.504-20.805,3.522-31.062
		c0.451-2.259,2.03-2.054,3.652-1.903c8.043,0.73,15.721,3.021,23.196,5.902C293.966,613.136,303.213,617.371,311.256,623.822"/>
	<path clip-path="url(#SVGID_6_)" fill="#EF4224" d="M314.843,538.088c-0.032,11.439-0.011,22.88-0.032,34.309
		c0,0.635,0.225,1.344-0.462,2.032c-4.424-4.43-9.332-8.237-14.798-11.278c-7.937-4.419-16.109-8.097-25.43-8.129
		c-1.568,0-1.89-0.688-1.407-2.054c3.78-10.439,7.668-20.837,11.888-31.094c0.612-1.495,1.643-2.14,3.264-2.204
		c11.319-0.431,19.696,4.559,25.71,13.913C314.457,534.948,314.843,536.432,314.843,538.088"/>
	<path clip-path="url(#SVGID_6_)" fill="#EF4224" d="M311.847,575.311c2.062,2.054,3.136,4.301,3.039,7.333
		c-0.193,6.16-0.054,12.343-0.054,18.515c-0.01,6.752,0,13.515-0.021,20.267c0,0.549,0.236,1.258-0.419,1.581
		c-0.537,0.258-0.913-0.237-1.278-0.55c-7.635-6.429-16.549-10.536-25.687-14.245c-8.441-3.43-17.119-6.075-26.247-6.859
		c-1.965-0.172-2.62-0.764-2.137-2.807c3.125-13.235,6.959-26.267,11.437-39.115c0.602-1.741,1.697-2.226,3.394-2.247
		c6.948-0.064,13.252,2.312,19.362,5.236C300.12,565.709,306.424,569.87,311.847,575.311"/>
	<path clip-path="url(#SVGID_6_)" fill="#EF4224" d="M249.529,635.918c2.921,3.484,2.889,7.333,2.717,11.301
		c-0.075,1.784-1.181,0.807-1.825,0.226c-3.201-2.914-6.444-5.795-9.558-8.806c-8.935-8.666-16.925-18.182-24.904-27.707
		c-0.204-0.237-0.322-0.538-0.869-1.494c3.822,1.73,6.829,3.343,9.654,5.246C233.829,620.78,242.409,627.457,249.529,635.918"/>
	<path clip-path="url(#SVGID_6_)" fill="#EF4224" d="M482.446,421.366c-0.345,4.892-0.688,9.784-1.054,14.676
		c-0.043,0.581-0.204,1.15-0.396,1.699c-0.322,0.968-1.084,1.236-1.987,1.032c-1.17-0.248-1.052-1.086-0.794-1.946
		C479.751,431.721,481.178,426.581,482.446,421.366"/>
	<path clip-path="url(#SVGID_6_)" fill="#EF4224" d="M477.474,441.622c2.267-0.957,3.222,0.107,3.007,5.118
		c-1.268,12.784-2.502,27.245-4.628,41.599c-0.474,3.14-0.569,3.15-3.685,2.118c-4.672-1.548-9.32-3.14-13.993-4.655
		c-1.675-0.549-2.384-1.064-1.147-2.936c7.914-12.053,14.066-24.977,18.782-38.588C476.153,443.278,476.292,442.128,477.474,441.622
		"/>
	<path clip-path="url(#SVGID_6_)" fill="#EF4224" d="M472.094,492.854c3.113,1.043,3.521,3.44,0.956,5.677
		c-1.258,1.097-2.62,2.075-3.866,3.183c-10.482,9.29-18.868,19.988-22.423,33.879c-0.064,0.216-0.279,0.388-0.56,0.753
		c-1.535-2.301-2.984-4.505-4.467-6.698c-3.233-4.772-6.808-9.279-10.878-13.364c-1.332-1.344-1.3-2.14,0.15-3.376
		c8.16-6.957,15.28-14.881,21.51-23.611c1.214-1.699,2.427-2.204,4.414-1.516C461.955,489.543,467.035,491.156,472.094,492.854"/>
	<path clip-path="url(#SVGID_6_)" fill="#EF4224" d="M466.435,272.84c0.344,0.946,1.342,2.183,0.439,2.957
		c-0.794,0.688-2.062-0.162-3.06-0.527c-5.757-2.107-11.008-5.15-15.947-8.774c-7.11-5.203-13.37-11.278-18.988-18.063
		c-1.256-1.505-1.685-3.042-1.438-5.053c1.105-9.064,1.171-18.138,0-27.213c-0.098-0.731-0.527-1.623,0.654-2.097
		c0.74,0.646,1.429,1.248,2.095,1.861c14.509,13.569,25.032,29.858,32.743,48.06C464.168,266.917,465.338,269.862,466.435,272.84"/>
	<path clip-path="url(#SVGID_6_)" fill="#EF4224" d="M464.737,277.872c1.911,0.527,2.158,1.333,1.202,3.011
		c-7.398,12.988-15.421,25.557-24.537,37.405c-1.312,1.71-2.331,1.678-3.846,0.387c-8.14-6.87-15.259-14.655-21.177-23.525
		c-1.117-1.677-1.847-3.537-1.858-4.601c0.141-0.387,0.313-1.032,0.56-1.645c4.843-11.924,8.762-24.128,11.082-36.815
		c0.118-0.634-0.011-1.559,0.741-1.731c0.858-0.204,1.202,0.742,1.665,1.29c6.731,7.946,14.453,14.752,23.249,20.322
		C455.855,274.528,460.12,276.603,464.737,277.872"/>
	<path clip-path="url(#SVGID_6_)" fill="#EF4224" d="M443.679,536.905c1.428,2.451,1.362,2.591-1.278,3.354
		c-6.508,1.859-11.383,6.192-15.969,10.838c-4.93,4.999-9.171,10.558-12.104,17.579c-0.719-1.709-1.246-2.979-1.793-4.258
		c-3.995-9.397-8.924-18.289-14.594-26.783c-0.731-1.097-1.332-2.161-0.57-3.451c5.692-9.633,13.585-16.342,24.809-18.547
		c3.199-0.634,5.647,0.484,7.902,3.032C435.142,524.379,439.833,530.304,443.679,536.905"/>
	<path clip-path="url(#SVGID_6_)" fill="#EF4224" d="M436.752,320.89c1.761,1.419,0.602,2.452-0.29,3.538
		c-5.53,6.795-11.384,13.31-17.536,19.536c-3.458,3.494-7.1,6.816-10.621,10.246c-0.967,0.946-1.837,1.247-3.05,0.344
		c-5.338-3.989-9.869-8.687-13.221-14.483c-1.245-2.15-1.257-3.989,0.118-6.246c7.453-12.268,14.175-24.934,20.029-38.062
		c0.204-0.441,0.451-0.86,0.826-1.559C419.666,304.569,427.474,313.396,436.752,320.89"/>
	<path clip-path="url(#SVGID_6_)" fill="#EF4224" d="M425.948,230.242c0.246,3.774-0.27,7.838-0.579,11.913
		c-0.236,3.032-0.655,3.312-3.556,2.699c-5.272-1.108-10.115-3.365-14.874-5.817c-11.683-6.01-22.723-12.967-32.184-22.224
		c-2.9-2.828-4.854-6-4.951-10.257c-0.161-6.935-1.181-13.795-2.232-20.633c-0.313-2.043,0.386-2.344,2.114-1.849
		c5.531,1.58,11.115,3.01,16.291,5.623c4.843,2.441,9.849,4.516,14.896,6.505c8.087,3.182,15.013,8.236,21.906,13.375
		c1.602,1.193,1.881,2.892,2.106,4.623C425.594,219.404,426.108,224.64,425.948,230.242"/>
	<path clip-path="url(#SVGID_6_)" fill="#EF4224" d="M418.979,246.52c5.627,1.613,5.627,1.613,4.478,7.548
		c-2.212,11.44-5.917,22.417-10.138,33.255c-0.677,1.742-1.632,2.247-3.447,1.774c-6.036-1.602-11.491-4.494-16.828-7.601
		c-8.15-4.753-16.054-9.849-22.465-16.977c-2.246-2.484-3.018-4.978-2.557-8.398c1.751-12.837,2.46-25.75,2.19-38.706
		c-0.01-0.473-0.172-1.011,0.441-1.527c6.035,6.634,13.153,11.967,20.661,16.794c8.568,5.516,17.387,10.58,27.181,13.677
		L418.979,246.52z"/>
	<path clip-path="url(#SVGID_6_)" fill="#EF4224" d="M409.261,291.291c1.75,0.43,1.813,1.215,1.17,2.677
		c-5.96,13.634-13.037,26.686-20.641,39.459c-0.729,1.215-1.708,1.785-3.125,1.57c-7.893-0.871-14.572-4.505-20.716-9.279
		c-2.996-2.322-5.584-5.01-7.506-8.311c-1.052-1.817-1.331-3.602-0.816-5.731c3.586-14.687,6.743-29.449,9.011-44.405
		c0.117-0.795-0.065-1.967,0.772-2.225c0.902-0.291,1.246,0.914,1.783,1.484c7.635,8.02,16.86,13.826,26.493,19.074
		C400.014,287.969,404.448,290.098,409.261,291.291"/>
	<path clip-path="url(#SVGID_6_)" fill="#EF4224" d="M417.723,514.058c-3.717,1.537-6.756,3.031-9.536,5.01
		c-4.672,3.322-8.795,7.183-11.78,12.117c-0.989,1.646-1.687,1.753-2.826,0.151c-6.925-9.73-14.646-18.827-22.476-27.837
		c-1.782-2.043-1.03-8.063,1.105-9.602c1.042-0.752,1.72,0.107,2.428,0.613c9.771,6.827,20.317,12.139,31.584,16.03
		C409.796,511.778,413.47,512.768,417.723,514.058"/>
	<path clip-path="url(#SVGID_6_)" fill="#EF4224" d="M403.257,355.844c1.363,1.011,1.449,1.667,0.149,2.86
		c-9.965,9.128-20.532,17.569-30.67,26.493c-0.58,0.516-1.289,1.085-1.975,0.376c-2.515-2.613-4.555-5.526-5.135-8.784
		c-0.063-1.688,0.506-2.71,1.172-3.677c7.259-10.505,14.336-21.128,21.025-31.998c0.764-1.258,1.343-1.634,2.182-0.054
		C393.205,347.081,397.855,351.823,403.257,355.844"/>
	<path clip-path="url(#SVGID_6_)" fill="#EF4224" d="M391.444,532.271c1.91,2.656,1.9,2.656-1.278,3.15
		c-9.451,1.474-17.493,5.721-24.248,12.462c-1.589,1.591-2.749,3.494-4.006,5.795c-2.234-5.967-4.284-11.505-6.391-17.01
		c-1.879-4.913-3.769-9.816-5.724-14.697c-0.655-1.624-0.729-3.204-0.236-4.871c2.072-7.063,6.035-12.203,13.693-13.665
		c2.749-0.527,4.875,0.075,6.84,2.365C377.482,514.412,384.818,523.057,391.444,532.271"/>
	<path clip-path="url(#SVGID_6_)" fill="#EF4224" d="M384.571,337.018c2.201,0.452,2.663,0.86,1.375,2.892
		c-6.799,10.709-13.715,21.332-20.898,31.772c-1.063,1.537-2.212,2.752-4.016,2.419c-7.852-0.269-15.724-7.957-16.108-15.601
		c-0.054-0.957,0.278-1.967,0.557-2.924c3.384-11.526,6.842-23.02,9.826-34.664c0.184-0.678,0.076-1.742,0.924-1.903
		c0.882-0.151,1.031,0.935,1.473,1.494C364.618,329.341,373.649,334.782,384.571,337.018"/>
	<path clip-path="url(#SVGID_6_)" fill="#EF4224" d="M368.517,489.877c1.515,1.204,1.911,2.313,0.924,3.999
		c-0.505,0.86-0.817,1.839-1.074,2.796c-0.505,1.925-1.17,2.43-2.696,0.698c-6.281-7.128-12.629-14.192-18.932-21.299
		c-0.838-0.936-1.676-1.893-1.547-3.3c0.086-0.496,0.129-1,0.278-1.475c0.29-0.913,0.118-2.279,1.269-2.494
		c0.977-0.183,1.385,1.054,1.954,1.721C354.705,477.587,361.268,484.092,368.517,489.877"/>
	<path clip-path="url(#SVGID_6_)" fill="#EF4224" d="M368.162,386.208c1.03,1.204,1.03,2.107-0.161,3.15
		c-6.81,6.011-13.231,12.419-19.255,19.214c-1.159,1.312-1.997,0.936-2.609-0.43c-0.441-0.979-0.709-2.032-0.881-2.57
		c-0.054-1.849,0.558-2.946,1.289-3.967c5.165-7.258,10.385-14.483,15.517-21.762c1.085-1.538,1.547-1.29,2.203,0.28
		C365.197,382.358,366.584,384.37,368.162,386.208"/>
	<path clip-path="url(#SVGID_6_)" fill="#EF4224" d="M367.979,213.91c0.29,14.117-0.43,28.181-2.115,42.201
		c-0.398,3.268-0.956,3.666-5.016,3.172c-10.824-1.333-20.866-5-30.401-10.171c-3.533-1.914-6.852-4.129-9.912-6.731
		c-2.352-2.011-3.587-4.333-3.491-7.591c0.205-6.838,0.054-13.687,0.054-20.536h0.011c0-7.258,0-14.515,0.011-21.783
		c0-0.721-0.322-1.666,0.343-2.118c0.785-0.505,1.332,0.419,1.933,0.795c14.047,8.774,29.167,15.01,45.275,18.805
		C367.045,210.513,367.937,211.394,367.979,213.91"/>
	<path clip-path="url(#SVGID_6_)" fill="#EF4224" d="M367.582,206.007c0.117,2.032-0.602,2.236-2.299,1.86
		c-6.689-1.463-13.134-3.731-19.502-6.204c-8.172-3.161-16.119-6.806-23.603-11.386c-5.091-3.118-6.251-5.924-5.048-11.709
		c0.225-1.032,0.752-1.408,1.729-1.354c1.503,0.085,2.996,0.139,4.499,0.214c12.93,0.527,25.709,2.194,38.381,4.764
		c2.256,0.451,3.286,1.473,3.599,3.688C366.271,192.567,367.175,199.255,367.582,206.007"/>
	<path clip-path="url(#SVGID_6_)" fill="#EF4224" d="M362.847,261.648c1.89,0.129,2.157,1.15,1.91,2.709
		c-1.599,10.225-3.265,20.439-5.584,30.536c-1.159,5.042-2.341,10.085-3.383,15.149c-0.472,2.279-1.621,3.15-3.952,3.182
		c-11.286,0.151-20.371-4.935-28.693-11.881c-0.773-0.634-1.449-1.376-2.18-2.064c-2.738-2.591-4.006-5.569-3.952-9.537
		c0.226-14.612,0.097-29.223,0.097-43.835v-3.462c4.79,4.354,9.568,7.515,14.756,10.064
		C341.669,257.315,351.838,260.917,362.847,261.648"/>
	<path clip-path="url(#SVGID_6_)" fill="#EF4224" d="M363.717,498.64c0.525,0.591,1.331,1.054,1.353,2.247
		c-9.118,0.591-14.315,6.16-17.375,14.214c-1.021-0.097-0.967-0.925-1.193-1.474c-3.285-7.935-6.304-15.987-9.9-23.782
		c-1.933-4.15-0.312-6.989,1.987-9.979c0.343-0.451,0.837-0.806,1.277-1.183c3.158-2.741,3.695-2.677,6.379,0.355
		C352.054,485.587,357.906,492.103,363.717,498.64"/>
	<path clip-path="url(#SVGID_6_)" fill="#EF4224" d="M358.594,376.047c2.823,0.484,2.909,0.699,1.246,3.032
		c-4.79,6.731-9.665,13.407-14.392,20.181c-1.18,1.688-2.319,1.839-3.961,0.893c-1.612-0.924-3.082-1.967-4.318-3.376
		c-2.394-2.741-3.458-5.461-2.008-9.311c2.728-7.257,4.875-14.74,7.291-22.116c0.247-0.753,0.227-1.666,1.161-2.279
		c0.719,1.322,1.396,2.644,2.147,3.903C348.702,371.876,352.859,375.069,358.594,376.047"/>
	<path clip-path="url(#SVGID_6_)" fill="#EF4224" d="M351.346,315.601c3.05-0.172,3.039-0.194,2.309,2.666
		c-3.029,11.806-6.508,23.471-9.859,35.18c-0.752,2.624-1.986,3.731-4.79,3.978c-9.139,0.807-18.481-4.903-21.51-13.526
		c-0.268-0.763-0.365-1.623-0.365-2.44c-0.021-13.44-0.021-26.879-0.011-40.309c0-0.57-0.096-1.161,0.323-1.655
		c1.03,0.064,1.396,0.914,1.976,1.462c8.183,7.945,17.665,13.311,29.177,14.547C349.508,315.601,350.433,315.644,351.346,315.601"/>
	<path clip-path="url(#SVGID_6_)" fill="#EF4224" d="M345.159,410.872c0.74,1.15,0.011,1.839-0.579,2.646
		c-2.761,3.805-6.025,7.063-9.773,9.901c-3.554,2.677-6.916,5.612-10.352,8.439c-0.075-0.075-0.15-0.14-0.226-0.215
		c6.143-8.235,12.285-16.472,18.568-24.901C343.699,408.335,344.365,409.646,345.159,410.872"/>
	<path clip-path="url(#SVGID_6_)" fill="#EF4224" d="M344.483,514.756c0.505,1.258,1.288,2.742-1.192,2.656
		c-10.503-0.377-18.621,4.172-25.119,12.128c-0.182,0.237-0.451,0.408-0.687,0.602c-0.516-0.505-0.365-1.031-0.365-1.505
		c-0.011-11.021,0.021-22.03-0.033-33.051c-0.01-1.742,0.591-3.032,1.837-4.172c3.072-2.807,6.648-4.397,10.803-4.666
		c2.116-0.139,3.566,0.57,4.436,2.752C337.513,497.962,341.036,506.349,344.483,514.756"/>
	<path clip-path="url(#SVGID_6_)" fill="#EF4224" d="M343.903,464.47c0.806,1.15,1.053,2.161,0.301,3.44
		c-0.57,0.989-0.893,2.118-1.473,3.549c-7.108-8.011-13.852-15.945-20.103-24.354c3.135,1.247,5.617,3.581,8.57,4.968
		C336.912,454.771,340.424,459.557,343.903,464.47"/>
	<path clip-path="url(#SVGID_6_)" fill="#EF4224" d="M340.735,402.378c1.084,0.57,1.557,1.086,0.666,2.269
		c-6.905,9.29-13.768,18.601-20.651,27.901c-0.204-0.086-0.409-0.183-0.613-0.269c2.588-7.634,5.156-15.268,7.744-22.891
		c1.395-4.107,2.834-8.193,4.263-12.279c0.193-0.538,0.225-1.301,0.837-1.452c0.709-0.172,0.913,0.613,1.214,1.065
		C335.838,399.228,338.136,400.991,340.735,402.378"/>
	<path clip-path="url(#SVGID_6_)" fill="#EF4224" d="M339.757,359.64c1.354-0.107,1.966,0.151,1.493,1.602
		c-2.953,9.214-5.895,18.429-8.849,27.654c-0.386,1.204-1.235,1.645-2.438,1.763c-4.327,0.441-10.277-2.591-12.382-6.332
		c-0.397-0.7-0.462-1.431-0.462-2.183c0-10.688,0-21.375,0.011-32.051c0-0.237,0.097-0.474,0.279-1.237
		c4.35,6.301,9.827,10.064,17.119,10.763C336.256,359.78,338.028,359.769,339.757,359.64"/>
	<path clip-path="url(#SVGID_6_)" fill="#EF4224" d="M339.951,471.856c2.008,2.365,2.062,2.408-0.397,4.086
		c-2.384,1.623-3.942,3.978-5.799,6.838c-4.672-11.58-9.117-22.612-13.564-33.653c0.151-0.086,0.301-0.183,0.451-0.279
		c1.386,1.666,2.76,3.344,4.157,5.011C329.846,459.857,334.883,465.868,339.951,471.856"/>
	<path clip-path="url(#SVGID_6_)" fill="#EF4224" d="M331.188,482.544c0.322,0.839,0.569,1.795-0.752,1.827
		c-4.843,0.141-9.085,1.839-13.112,5.301v-41.599c4.135,10.269,8.022,19.934,11.909,29.6
		C329.888,479.297,330.554,480.92,331.188,482.544"/>
	<path clip-path="url(#SVGID_6_)" fill="#EF4224" d="M329.308,393.002c1.805,0.054,1.268,1.366,0.924,2.398
		c-3.093,9.171-6.196,18.332-9.321,27.492c-1.096,3.236-2.256,6.451-3.62,10.344v-45.62
		C320.921,391.153,324.777,392.862,329.308,393.002"/>
	<path clip-path="url(#SVGID_6_)" fill="#EF4224" d="M314.983,338.48c0.58,8.505-8.613,17.762-16.194,18.633
		c-0.086,0.011-0.161,0.022-0.247,0.033c-8.441,1.214-9.161,0.72-11.523-7.398c-3.05-10.504-6.1-20.998-8.849-31.589
		c-0.537-2.075-0.365-2.752,2.083-2.613c4.092,0.226,8.162-0.505,12.028-1.924c8.183-2.989,15.517-7.322,21.327-13.967
		c0.215-0.247,0.483-0.43,1.225-1.075v10.096C314.833,318.611,314.317,328.588,314.983,338.48"/>
	<path clip-path="url(#SVGID_6_)" fill="#EF4224" d="M314.811,182.525c1.063,3.344-1.289,5.354-4.167,7.118
		c-13.38,8.203-27.77,14.009-42.934,17.955c-3.694,0.957-3.641,0.806-3.329-3.118c0.505-6.311,1.224-12.601,2.223-18.848
		c0.301-1.871,1.095-2.892,3.082-3.312c14.208-3.042,28.576-4.623,43.084-5.149c1.375-0.054,2.052,0.408,2.041,1.806V182.525z"/>
	<path clip-path="url(#SVGID_6_)" fill="#EF4224" d="M314.865,291.076c0.011,2.408-0.623,4.408-2.223,6.161
		c-8.548,9.321-18.664,15.568-31.691,15.923c-4.048,0.118-4.07,0.011-5.004-3.903c-3.512-14.698-6.604-29.481-8.774-44.448
		c-0.3-2.096-0.097-3,2.481-3.258c15.883-1.623,30.23-7.257,42.848-17.127c0.516-0.42,1.021-0.861,1.557-1.258
		c0.108-0.086,0.301-0.065,0.484-0.097c0.515,0.753,0.268,1.602,0.268,2.408C314.833,260.67,314.79,275.873,314.865,291.076"/>
	<path clip-path="url(#SVGID_6_)" fill="#EF4224" d="M314.865,235.263c0.032,2.441-0.73,4.354-2.438,6.042
		c-3.415,3.388-7.399,5.968-11.62,8.172c-9.224,4.806-18.846,8.483-29.263,9.698c-0.913,0.108-1.836,0.129-2.749,0.204
		c-1.633,0.14-2.459-0.613-2.663-2.236c-1.848-14.687-2.599-29.417-2.138-44.201c0.043-1.602,0.709-2.419,2.267-2.752
		c14.551-3.14,28.071-8.956,41.151-15.913c1.761-0.946,3.393-2.107,5.112-3.139c0.601-0.366,1.181-1.248,1.933-0.785
		c0.698,0.419,0.354,1.376,0.365,2.097c0.011,7.268,0.011,14.525,0.011,21.783C314.822,221.243,314.768,228.253,314.865,235.263"/>
	<path clip-path="url(#SVGID_6_)" fill="#EF4224" d="M314.833,351.77v27.267c0,5.762-2.953,9.601-8.591,11.149
		c-0.247,0.064-0.494,0.118-0.73,0.172c-4.404,1.021-5.467,0.473-6.82-3.72c-2.631-8.171-5.197-16.364-7.86-24.535
		c-0.634-1.936-0.473-2.624,1.9-2.431c9.182,0.743,16.302-3.031,22.101-10.354V351.77z"/>
	<path clip-path="url(#SVGID_6_)" fill="#EF4224" d="M314.811,494.726c-0.011,11.602-0.011,23.202-0.021,34.793
		c0,0.215-0.162,0.43-0.333,0.839c-1.149-1.259-2.159-2.452-3.254-3.57c-5.907-6.074-13.005-9.439-21.597-9.396
		c-3.178,0.021-3.243-0.107-2.029-3.086c3.415-8.333,6.883-16.644,10.234-25.009c0.741-1.85,1.912-2.612,3.78-2.559
		c4.929,0.15,9.032,2.075,12.35,5.709C314.532,493.102,314.811,493.854,314.811,494.726"/>
	<path clip-path="url(#SVGID_6_)" fill="#EF4224" d="M314.639,447.88v41.738c-3.275-2.612-6.54-4.365-10.31-4.967
		c-4.306-0.688-4.273-0.688-2.598-4.817C305.994,469.33,310.225,458.825,314.639,447.88"/>
	<path clip-path="url(#SVGID_6_)" fill="#EF4224" d="M314.639,387.595v45.007c-0.107,0.032-0.226,0.064-0.333,0.097
		c-4.231-12.45-8.462-24.912-12.683-37.374c-0.333-0.978-0.676-2.236,0.849-2.29C307.068,392.874,310.978,391.132,314.639,387.595"
		/>
	<path clip-path="url(#SVGID_6_)" fill="#EF4224" d="M311.729,432.483c-0.14,0.075-0.279,0.14-0.419,0.215
		c-1.084-1.44-2.18-2.871-3.254-4.322c-5.702-7.698-11.372-15.418-17.118-23.084c-1.106-1.462-1.203-2.312,0.634-3.204
		c2.502-1.215,4.553-3.042,6.132-5.387c0.3-0.452,0.504-1.204,1.213-1.065c0.645,0.13,0.687,0.882,0.87,1.409
		c0.999,2.914,1.965,5.849,2.964,8.762c2.739,8.043,5.499,16.085,8.237,24.128C311.278,430.773,311.482,431.634,311.729,432.483"/>
	<path clip-path="url(#SVGID_6_)" fill="#EF4224" d="M311.439,448.751c0.118,1.097-0.408,1.893-0.741,2.72
		c-3.791,9.451-7.592,18.892-11.416,28.331c-0.3,0.753-0.375,1.893-1.235,2.043c-1.138,0.193-1.288-1.118-1.772-1.816
		c-1.31-1.881-2.867-3.484-4.843-4.635c-0.912-0.537-1.525-1.15-0.655-2.172C297.628,465.094,304.502,456.965,311.439,448.751"/>
	<path clip-path="url(#SVGID_6_)" fill="#EF4224" d="M308.486,447.17c0.183,0.227,0.354,0.441,0.537,0.656
		c-2.406,2.957-4.768,5.935-7.217,8.849c-3.64,4.344-7.356,8.623-10.986,12.967c-1.192,1.44-1.61,1.559-2.631-0.344
		c-1.493-2.774-0.955-4.613,0.817-7.086c2.544-3.537,5.422-6.419,9.203-8.569C301.72,451.643,305.071,449.342,308.486,447.17"/>
	<path clip-path="url(#SVGID_6_)" fill="#EF4224" d="M307.079,430.902c-0.15,0.141-0.29,0.291-0.44,0.431
		c-6.24-5.946-13.908-10.203-19.373-17.074c-1.203-1.505-1.354-2.602-0.129-4.118c0.762-0.935,1.149-2.161,1.847-3.537
		C295.094,414.808,301.086,422.85,307.079,430.902"/>
	<path clip-path="url(#SVGID_6_)" fill="#EF4224" d="M296.469,387.197c0.773,2.269,1.815,4.44,0.193,6.881
		c-1.943,2.925-4.231,5.333-7.538,6.667c-1.107,0.452-1.708-0.161-2.266-0.958c-5.144-7.182-10.288-14.353-15.4-21.547
		c-0.451-0.634-1.568-1.677,0.311-1.902c8.044-0.957,13.048-5.71,16.195-12.828c0.064-0.128,0.247-0.214,0.666-0.569
		c2.459,7.633,4.832,14.999,7.206,22.363C296.039,385.939,296.254,386.573,296.469,387.197"/>
	<path clip-path="url(#SVGID_6_)" fill="#EF4224" d="M296.34,485.371c0.279,0.742,0.075,1.474-0.215,2.183
		c-3.586,8.698-7.173,17.407-10.76,26.116c-0.183,0.452-0.312,0.957-1.278,1.355c-2.91-8.086-8.226-13.516-17.998-14.117
		c6.024-6.764,11.512-12.913,16.988-19.053c0.999-1.118,2.148-2.129,2.997-3.344c1.428-2.032,2.932-2.075,4.865-0.764
		C293.709,479.63,295.191,482.372,296.34,485.371"/>
	<path clip-path="url(#SVGID_6_)" fill="#EF4224" d="M286.471,355.726c0.29,0.957,0.602,1.893,0.494,2.935
		c-0.751,7.462-7.624,14.483-15.045,15.376c-1.954,0.247-3.49-0.13-4.747-1.915c-7.42-10.601-14.454-21.449-21.295-32.416
		c-0.526-0.85-1.836-2.064,0.483-2.484c12.221-2.225,21.854-8.558,29.414-18.762c2.191,7.709,4.274,15.171,6.411,22.611
		C283.582,345.963,285.032,350.845,286.471,355.726"/>
	<path clip-path="url(#SVGID_6_)" fill="#EF4224" d="M286.428,472.91c0.075,1.075-0.333,2.118-1.16,3.043
		c-6.507,7.278-13.005,14.568-19.469,21.88c-1.01,1.129-1.665,1.312-2.084-0.398c-0.182-0.72-0.44-1.43-0.708-2.128
		c-1.622-4.215-1.633-4.226,1.761-7.042c6.325-5.216,12.059-11.032,17.44-17.215c0.816-0.936,1.245-2.536,2.888-2.397
		C285.848,468.717,286.449,470.813,286.428,472.91"/>
	<path clip-path="url(#SVGID_6_)" fill="#EF4224" d="M286.707,405.206c-0.14,0.505-0.29,1.236-0.537,1.937
		c-1.149,3.106-1.997,3.311-4.124,0.869c-5.616-6.396-11.694-12.343-18.073-17.955c-1.547-1.366-1.665-2.366-0.29-3.871
		c1.579-1.72,2.867-3.688,3.801-5.838c0.623-1.43,1.246-1.925,2.374-0.355c5.219,7.322,10.492,14.622,15.732,21.934
		C286.235,402.819,286.557,403.862,286.707,405.206"/>
	<path clip-path="url(#SVGID_6_)" fill="#EF4224" d="M281.273,514.068c1.428,3.183,1.579,6.214,0.193,9.623
		c-3.78,9.268-7.195,18.676-10.771,28.029c-0.172,0.452-0.215,1-0.923,1.258c-1.407-1.537-2.234-3.58-3.781-5.096
		c-6.873-6.73-14.916-11.117-24.517-12.451c-2.727-0.387-2.846-0.645-1.17-2.999c6.841-9.58,14.497-18.504,22.154-27.439
		c1.439-1.688,3.222-1.924,5.198-1.698C274.412,504.08,278.588,508.133,281.273,514.068"/>
	<path clip-path="url(#SVGID_6_)" fill="#EF4224" d="M274.304,311.794c0.462,1.828,0.236,3.365-0.612,5.021
		c-1.858,3.559-4.511,6.386-7.646,8.795c-6.025,4.612-12.436,8.408-20.189,9.246c-0.408,0.043-0.817,0.108-1.236,0.162
		c-1.267,0.107-1.986-0.635-2.577-1.635c-7.603-12.751-14.615-25.825-20.629-39.416c-0.688-1.537-0.355-2.139,1.245-2.688
		c15.54-5.322,29.167-13.719,40.647-25.546c0.333-0.355,0.623-1.011,1.139-0.774c0.795,0.365,0.666,1.279,0.773,1.989
		c1.31,9.332,3.104,18.59,5.133,27.783C271.609,300.429,272.897,306.127,274.304,311.794"/>
	<path clip-path="url(#SVGID_6_)" fill="#EF4224" d="M266.164,551.86c2.212,2.785,2.62,5.764,1.353,9.354
		c-4.016,11.418-7.474,23.02-10.159,34.836c-0.182,0.774-0.15,1.655-0.945,2.322c-7.399-8.881-16.678-15.246-26.858-20.439
		c-2.825-1.451-5.735-2.752-8.87-3.312c-2.234-0.397-2.395-1.376-1.676-3.29c4.285-11.386,10.009-22.009,16.603-32.19
		c0.88-1.355,1.997-2,3.554-1.807C250.022,538.711,259.259,543.173,266.164,551.86"/>
	<path clip-path="url(#SVGID_6_)" fill="#EF4224" d="M264.886,372.94c0.644,0.967,1.417,1.881,1.385,3.602
		c-0.612,3.408-2.609,6.537-5.305,9.246c-1.074,1.075-1.836-0.107-2.523-0.699c-6.551-5.558-13.08-11.149-19.588-16.751
		c-3.662-3.161-7.249-6.408-10.922-9.547c-1.16-0.99-1.074-1.581,0.097-2.484c5.595-4.312,10.621-9.129,13.961-15.493
		c0.901-1.731,1.492-0.549,2.04,0.311c3.2,4.978,6.357,10,9.611,14.945C257.347,361.726,261.138,367.316,264.886,372.94"/>
	<path clip-path="url(#SVGID_6_)" fill="#EF4224" d="M262.577,183.987c1.493-0.527,1.987-0.032,1.772,1.516
		c-0.602,4.462-1.17,8.935-1.697,13.408c-0.311,2.558-0.773,5.15-0.687,7.72c0.139,4.139-1.761,7.182-4.532,9.902
		c-9.149,8.956-19.77,15.816-31.046,21.74c-5.165,2.72-10.428,5.268-16.173,6.559c-3.093,0.698-3.447,0.397-3.705-2.763
		c-0.333-4.162-0.752-8.323-0.526-12.301c-0.215-5.483,0.301-10.708,1.063-15.923c0.301-2,1.095-3.548,2.76-4.806
		c7.185-5.484,14.648-10.451,23.175-13.687c9.418-3.581,18.191-8.806,28.146-10.989
		C261.621,184.256,262.115,184.148,262.577,183.987"/>
	<path clip-path="url(#SVGID_6_)" fill="#EF4224" d="M264.112,258.207c0.258,1.871-0.461,3.247-1.471,4.602
		c-3.469,4.709-8.033,8.204-12.715,11.569c-7.356,5.258-15.035,9.988-23.486,13.225c-8.409,3.214-6.744,2.322-9.225-3.893
		c-4.22-10.568-7.334-21.471-9.439-32.664c-0.462-2.429,0.128-3.408,2.599-3.956c10.244-2.312,19.201-7.57,27.985-13.042
		c8.334-5.204,16.398-10.817,23.272-18.751c-0.119,5.128-0.054,9.687,0.085,14.246C262.008,239.144,262.792,248.703,264.112,258.207
		"/>
	<path clip-path="url(#SVGID_6_)" fill="#EF4224" d="M260.654,495.564c1.665,3.483,1.729,6.301-1.267,9.612
		c-7.474,8.278-14.616,16.891-21.027,26.051c-1.138,1.624-1.729,1.957-2.996-0.086c-4.392-7.149-10.653-12.278-18.246-15.794
		c-0.826-0.387-1.675-0.731-2.502-1.107c-0.064-0.031-0.086-0.129-0.311-0.495c5.907-1.569,11.544-3.344,17.032-5.536
		c9.01-3.603,17.429-8.301,25.451-13.752C259.011,492.94,259.462,493.08,260.654,495.564"/>
	<path clip-path="url(#SVGID_6_)" fill="#EF4224" d="M253.309,598.352c1.847,2.236,2.609,4.58,1.976,7.612
		c-1.74,8.333-2.792,16.772-3.071,25.299c-0.032,1.054-0.032,2.14-0.795,3.44c-2.771-3.397-5.681-6.44-8.838-9.257
		c-6.927-6.183-14.347-11.677-22.455-16.203c-1.74-0.979-3.598-1.764-5.477-2.451c-3.684-1.355-3.716-1.301-3.168-5.322
		c1.02-7.623,2.846-15.074,4.951-22.461c0.654-2.279,1.75-2.881,4.016-2.204c8.355,2.506,15.604,7.043,22.573,12.096
		C246.812,591.643,250.313,594.729,253.309,598.352"/>
	<path clip-path="url(#SVGID_6_)" fill="#EF4224" d="M239.842,334.169c1.106,1.871,1.246,3.602,0.236,5.419
		c-3.404,6.182-8.236,11.063-13.885,15.213c-1.385,1.022-2.288,0.248-3.243-0.634c-5.832-5.376-11.469-10.935-16.807-16.784
		c-3.876-4.246-7.549-8.676-11.372-12.977c-1.192-1.355-1.149-2.268,0.29-3.484c8.967-7.547,17.16-15.805,23.132-26.019
		c0.118-0.193,0.365-0.301,0.73-0.58c1.815,3.817,3.586,7.569,5.391,11.289C229.04,315.375,234.301,324.857,239.842,334.169"/>
	<path clip-path="url(#SVGID_6_)" fill="#EF4224" d="M234.043,533.238c0.816,1.527,0.891,2.914-0.129,4.44
		c-6.271,9.387-11.663,19.247-15.85,29.751c-0.108,0.279-0.312,0.526-0.602,0.979c-4.188-9.279-10.449-16.623-18.16-22.794
		c-3.092-2.474-6.4-4.56-10.298-5.473c-1.965-0.463-1.944-1.398-1.074-2.86c4.285-7.301,9.418-13.945,15.26-20.052
		c1.75-1.839,3.963-1.989,6.25-1.71c6.744,0.839,12.135,4.451,17.107,8.73C229.522,526.819,232.175,529.712,234.043,533.238"/>
	<path clip-path="url(#SVGID_6_)" fill="#EF4224" d="M216.356,287.656c1.031,2.484,0.945,4.602-0.494,6.849
		c-5.982,9.376-13.542,17.321-21.94,24.536c-1.46,1.258-2.62,1.043-3.769-0.473c-9.074-11.892-17.397-24.278-24.506-37.46
		c-0.645-1.204-1.407-2.354,0.784-3.01c12.435-3.72,22.283-11.462,31.293-20.45c2.47-2.462,4.757-5.107,7.464-8.042
		c0.783,3.709,1.428,6.967,2.158,10.203C209.504,269.367,212.598,278.625,216.356,287.656"/>
	<path clip-path="url(#SVGID_6_)" fill="#EF4224" d="M214.509,567.591c1.375,2.773,1.503,5.462,0.537,8.451
		c-2.352,7.225-4.145,14.601-5.359,22.105c-0.139,0.882-0.376,1.752-0.655,2.989c-2.33-3.118-4.446-5.968-6.583-8.807
		c-3.264-4.344-7.087-8.192-11.061-11.88c-5.681-5.269-9.128-12.053-12.919-18.623c-0.59-1.01-0.461-2.074-0.086-3.139
		c1.751-4.968,3.705-9.838,5.885-14.623c0.762-1.688,1.847-2.129,3.566-1.827c2.792,0.483,5.218,1.806,7.463,3.365
		C203.523,551.323,210.042,558.559,214.509,567.591"/>
	<path clip-path="url(#SVGID_6_)" fill="#EF4224" d="M204.49,243.886c0.204,1.548-0.075,2.742-1.031,3.924
		c-8.355,10.268-18.041,18.967-29.865,25.095c-1.911,0.989-3.984,1.71-6.014,2.452c-0.805,0.29-1.782,1.021-2.545,0.161
		c-0.623-0.71-0.01-1.602,0.258-2.365c2.158-6.064,4.682-11.978,7.528-17.741c7.431-15.031,16.989-28.503,29.35-39.911
		c0.654-0.613,1.192-1.387,2.62-1.827c-1.171,7.16-1.257,14.073-1.031,20.976C203.867,237.736,204.082,240.832,204.49,243.886"/>
	<path clip-path="url(#SVGID_6_)" fill="#EF4224" d="M200.914,513.509c1.063,0.914,1.096,1.688,0.118,2.699
		c-5.423,5.602-10.105,11.762-14.164,18.407c-0.29,0.483-0.548,1.183-1.203,1.161c-0.752-0.043-0.688-0.85-0.838-1.366
		c-4.199-14.654-13.52-25.653-25.064-35.029c-1.45-1.172-2.556-2.376-2.545-3.902c-0.161-1.484,0.536-1.903,1.374-2.183
		c5.606-1.892,11.222-3.764,16.828-5.656c1.203-0.408,2.04-0.064,2.792,0.957C184.838,497.758,192.354,506.122,200.914,513.509"/>
	<path clip-path="url(#SVGID_6_)" fill="#EF4224" d="M181.348,530.895c2.019,5.086,2.717,9.988-0.333,15.085
		c-1.686,2.828-2.578,6.14-3.845,9.214c-0.247,0.592-0.579,1.139-1.095,2.129c-8.785-17.837-14.122-36.255-17.655-55.307
		c1.106-0.194,1.482,0.333,1.901,0.698C169.406,510.552,176.859,519.605,181.348,530.895"/>
	<path clip-path="url(#SVGID_6_)" fill="#EF4224" d="M174.389,483.027c1.138,1.721,0.827,2.333-1.042,2.914
		c-4.703,1.451-9.332,3.075-14.003,4.623c-2.642,0.871-2.868,0.721-3.308-2.141c-1.042-6.75-1.868-13.535-2.491-20.341
		c-0.731-8.054-1.536-16.096-2.352-24.139c-0.14-1.322-0.097-2.376,1.836-2.451c1.536-0.107,1.912,1.236,2.352,2.516
		c2.62,7.58,5.735,14.945,9.268,22.139C167.527,471.985,170.813,477.598,174.389,483.027"/>
	<path clip-path="url(#SVGID_6_)" fill="#EF4224" d="M153.168,437.364c0.161,0.581,0.14,1.237-0.623,1.398
		c-1.009,0.226-1.675-0.345-1.815-1.258c-0.225-1.56-0.257-3.15-0.397-4.721c-0.161-1.989-0.333-3.967-0.505-5.945
		c0.14-0.032,0.279-0.054,0.419-0.086C151.225,430.29,152.212,433.816,153.168,437.364"/>
</g>
</svg>
